<?xml version="1.0" encoding="UTF-8" standalone="no"?>
<!-- Uploaded to: SVG Repo, www.svgrepo.com, Generator: SVG Repo Mixer Tools -->

<svg
   fill="#000000"
   width="890.78058"
   height="883.87616"
   viewBox="0 0 285.04979 282.84037"
   id="Flat"
   version="1.1"
   sodipodi:docname="lightbulb-filament-eureka.svg"
   xml:space="preserve"
   inkscape:version="1.2.2 (732a01da63, 2022-12-09)"
   xmlns:inkscape="http://www.inkscape.org/namespaces/inkscape"
   xmlns:sodipodi="http://sodipodi.sourceforge.net/DTD/sodipodi-0.dtd"
   xmlns="http://www.w3.org/2000/svg"
   xmlns:svg="http://www.w3.org/2000/svg"><defs
     id="defs7" /><sodipodi:namedview
     id="namedview5"
     pagecolor="#ffffff"
     bordercolor="#666666"
     borderopacity="1.0"
     inkscape:showpageshadow="2"
     inkscape:pageopacity="0.0"
     inkscape:pagecheckerboard="0"
     inkscape:deskcolor="#d1d1d1"
     showgrid="false"
     inkscape:zoom="0.314375"
     inkscape:cx="189.26441"
     inkscape:cy="402.38569"
     inkscape:window-width="1280"
     inkscape:window-height="658"
     inkscape:window-x="-6"
     inkscape:window-y="-6"
     inkscape:window-maximized="1"
     inkscape:current-layer="Flat" /><g
     id="g400"><path
       d="m 194.52487,270.84038 a 12.00028,12.00028 0 0 1 -12,12 h -80 a 12,12 0 0 1 0,-24 h 80 a 12.00028,12.00028 0 0 1 12,12 z m 40,-128 a 92.48672,92.48672 0 0 1 -36.97168,73.73438 7.80719,7.80719 0 0 0 -3.02783,6.26562 20.02418,20.02418 0 0 1 -20,20 h -64.001 a 20.02365,20.02365 0 0 1 -19.999996,-19.999 v -0.22754 a 7.78064,7.78064 0 0 0 -3.24463,-6.20215 91.34672,91.34672 0 0 1 -36.75342,-73.05371 C 50.250924,93.529846 90.529244,52.037666 140.31342,50.865786 a 92.001,92.001 0 0 1 94.21145,91.974594 z m -24,0 a 67.99926,67.99926 0 0 0 -69.647,-67.980474 c -36.79,0.86524 -66.555176,31.534184 -66.351566,68.365244 a 67.53079,67.53079 0 0 0 27.177246,54.00488 h 4.9e-4 a 32.1478,32.1478 0 0 1 12.58645,21.61035 h 16.23438 v -31.0293 l -28.48535,-28.48535 a 12.0001,12.0001 0 0 1 16.9707,-16.9707 l 23.51465,23.51465 23.51465,-23.51465 a 12.0001,12.0001 0 0 1 16.9707,16.9707 l -28.48535,28.48535 v 31.0293 h 16.25146 a 31.8401,31.8401 0 0 1 12.40967,-21.49023 67.47611,67.47611 0 0 0 27.33887,-54.50977 z"
       id="path2"
       style="display:inline" /><path
       d="m 142.52489,38.865332 c -7.15585,10e-7 -12.95681,-5.80096 -12.95681,-12.956808 V 12.951715 C 129.57108,5.79785 135.37103,0 142.52489,0 c 7.15386,0 12.954,5.79785 12.95681,12.951715 v 12.956809 c 0,7.155848 -5.80096,12.956809 -12.95681,12.956808 z m 100.77806,21.197339 -9.16047,9.160463 c -5.08398,4.910276 -13.16521,4.840048 -18.16309,-0.157832 -4.99788,-4.997879 -5.06811,-13.079112 -0.15784,-18.163094 l 9.16047,-9.160464 c 5.08398,-4.910294 13.16523,-4.840073 18.16311,0.157814 4.99789,4.997887 5.06811,13.079134 0.15782,18.163113 z M 50.907299,247.09421 c -11.541003,-0.002 -17.319951,-13.95531 -9.160464,-22.11727 l 9.147507,-9.16047 c 5.059189,-5.06277 13.264641,-5.06566 18.327403,-0.006 5.062761,5.05918 5.065669,13.26463 0.0065,18.3274 l -9.147506,9.16047 c -2.432482,2.43322 -5.732853,3.79905 -9.17342,3.79634 z M 285.04978,142.51981 c 0,7.15584 -5.80096,12.95681 -12.9568,12.95681 h -12.95681 c -7.15585,0 -12.95681,-5.80096 -12.95681,-12.95681 0,-7.15586 5.80096,-12.95682 12.95681,-12.95682 h 12.95681 c 7.15585,10e-6 12.9568,5.80097 12.9568,12.95682 z m -246.179357,0 c 10e-7,7.15585 -5.80096,12.95681 -12.956808,12.95681 H 12.956806 C 5.8009515,155.47662 0,149.67566 0,142.51981 0,135.36395 5.8009515,129.56299 12.956806,129.56299 h 12.956809 c 7.15585,0 12.956811,5.80097 12.956808,12.95682 z m 204.432527,82.45713 c 5.21043,5.03247 5.28275,13.35925 0.16053,18.48146 -5.12221,5.12222 -13.44899,5.0499 -18.48146,-0.16053 l -9.16047,-9.16047 c -4.91033,-5.08397 -4.84013,-13.16525 0.15778,-18.16315 4.9979,-4.99791 13.07918,-5.06811 18.16315,-0.15778 z M 69.228225,50.902208 c 5.05549,5.063398 5.050828,13.265825 -0.0104,18.323478 -5.06123,5.057654 -13.263658,5.056517 -18.323481,-0.0026 l -9.147507,-9.160463 c -5.057113,-5.063121 -5.053221,-13.266875 0.0087,-18.325201 5.061903,-5.058325 13.265658,-5.056418 18.325202,0.0043 z"
       id="path236"
       style="fill:#000000;stroke-width:12.9568"
       sodipodi:nodetypes="sscscssccsccsccccscccsssssssssssssscsccscccsccscc" /></g></svg>
